<svg width="2048" height="1024" xmlns="http://www.w3.org/2000/svg" data-id="map-1" class="svg-map">

 <g>
  <title>Layer 1</title>
  <path id="svg_1" d="m292,1037s151.877,-276.989 355,-455l109,109l128,-115l24,77s62.951,-31.932 107,-32l2,4s146.47,-29.933 161,-36s11.44,1.183 25,-11s37.65,-37.56 47,-41s76,156 76,156s47.56,-3.062 179,35l208,63s42.96,-143.81 53,-157s25.95,-64.2 26,-68s0,2 0,2s130.12,-4.949 150,-8s97.26,-6.326 113,-4" class="cls-1" data-name="Фигура 1"/>
  <path id="svg_2" d="m1904,-6s-6.63,49.423 -8,60s-6,49 -6,49s-26.3,180.866 -26,188s0,7 0,7s-236.64,-4.365 -245,-4s4,154 4,154l-77,2s2.99,19.305 -2,23s3.18,11.805 3,18s0,116 0,116s-51,4.849 -58,5s-2,18 -2,18s-105.05,-9.242 -109,-9s-38,0 -38,0l-7,-24l-40,16l18,41l-176,100s33.91,38.935 18,59s-52,43 -52,43s-12.19,0.085 -14,0s-92,68 -92,68s-8.8,0.867 -19,12s-60,92 -60,92" class="cls-1" data-name="Фигура 3"/>
  <path id="svg_3" d="m298,-6l28,23l-39,41l100,108l-63,63l140,154l70,-64l84,88l40,-41l81,90s165.646,-94.084 242,-116s154,-32 154,-32l116,229s40.27,-26.009 56,-29s113.84,-14.033 123,-9l2,93l61,6l-2,14s78.47,-9.473 133,-1c0,0 -15.18,119.4 6,153l101,31s-12.76,109.682 -5,113c0,0 104.63,13.546 138,17s103,17 103,17s-31.9,82.06 -37,88" class="cls-1" data-name="Фигура 4"/>
  <path id="svg_4" d="m1293,1027l-62,-111l-19,-31l-155,103s-35.41,-48.044 -73,-78s-100,-95 -100,-95l-62,-62l-71,49l-35,-45l-15,-1l-76,58s-32.554,-14.514 -46,-8s-113.353,80.845 -119,87s-29.007,-34.438 -44,-44c0,0 -1.64,-10.346 -15,-16s-34,-23 -34,-23l-70,-94l176,-172l-138,-134l39,-37l-97,-100l161,-162s40.968,38.6 41,43l138,-164" class="cls-1" data-name="Фигура 5"/>
  <path id="svg_5" d="m1498,-20s-66.97,83.057 -72,91s-48,62 -48,62l-44,41s66.13,48.5 107,52s88,-2 88,-2l7,56s-151.33,5.792 -179,17l-149,14s-24.27,-14.187 -65,-7c0,0 -125.21,28.353 -166,38c0,0 -10.783,10.379 -24,-48s-39,-167 -39,-167s-133.649,24.416 -187,88l-109,-102l-136,148l-65,65l-215,-219s-32.67,37.354 -42,44s-175,108 -175,108" class="cls-1" data-name="Фигура 6"/>
  <path id="svg_6" d="m1039,-4l100,322s-138.77,28.06 -160,41s-94.242,55.153 -99,58s-111.15,55 -189,117l7,7l-47,38s-88.632,-97 -100,-108c0,0 -116.165,114.367 -122,120s-90,-89 -90,-89s-106.484,108.558 -115,113c0,0 -22.994,-37.881 -43.116,-49.51q-1.453,-0.84 -2.884,-1.49c-20.739,-9.383 -102.019,9.576 -116,10s-67,-11 -67,-11" class="cls-1" data-name="Фигура 2"/>
  <path id="svg_7" d="m98,1029l1,2s2.986,-45.59 -7,-55s-13,-13 -13,-13s64.545,-57.255 99,-119l5,-6s-76.227,-43.539 -78,-46c0,0 24.235,-32.7 24,-36l-20,-18s4.219,-17.249 25,-18l4,0s10.815,-20.48 15,-21l24,10s13.724,-32.644 25,-31s12,5 12,5l7,-11s26.725,-13.515 30,-19c0,0 -54.444,-80.467 -70,-87s-3,-3 -3,-3l160,-157s-79.658,-65.89 -95,-97l102,-103l-71,-76l39,-45l-10,-9l43,-43l59,50l87,-104" class="cls-1" data-name="Фигура 7"/>
  <path id="svg_8" d="m2067,150s-67.95,7.764 -75,8s-26,0 -26,0s-4.93,-7.1 -7,25s-1,34 -1,34l-25,-1s0.89,88.377 -6,96c0,0 -60.67,-13.984 -80,-15c0,0 -22.96,-15.757 -126,-20l-78,0s6.54,88.869 9,111s38,315 38,315l-25,42l-151,-38s-14.42,33.564 -27,42s-79,84 -79,84l43,93s59.14,-22.7 115,-10c0,0 12.4,-2.95 13,6s1,104 1,104" class="cls-1" data-name="Фигура 8"/>
  <path id="svg_9" d="m650,1029s118.751,-100.08 154,-113c0,0 11.355,-7.891 24,15c0,0 68.785,-50.835 91,-86l-33,-33s67.645,-69.243 102,-80s44,-20 44,-20l-49,-247l55,-12a18.879,18.879 0 0 0 4,-20c-4.4,-12.274 -7,-11 -7,-11s-13.7,-6.193 -14.04,-21.857c-0.01,-0.695 0,-1.41 0.04,-2.143c0,0 81.69,-20.453 92,-24c0,0 7.1,-6.293 12,6s5,14 5,14l-11,7s4.13,28.395 24,22s38,-19 38,-19l-28,-67s162.12,-20.633 180,-21s44.5,2.367 85,1s191,-15 191,-15s-82.94,-158.176 17,-310" class="cls-1" data-name="Фигура 9"/>
  <path id="svg_10" d="m-9,264l135,81l26,-44s36.136,16.589 41,18s24,17 24,17l-89,129l13,14s14.153,-13.733 34,3s30,31 30,31l25,-26l16,7l92,-86l175,186l-28,21s-8.346,5.128 11,20l15,13s8.477,8.718 -3,21l-11,20l30,25s95.757,-107.645 122,-129l359,349l86,-72s60.97,-45.391 79,-53s153,-114 153,-114s71.59,110.621 81,137s76,177.08 77,193" class="cls-1" data-name="Фигура 10"/>
  <path id="svg_11" d="m1291,-12l-13,36l147,47l-47,61s31.46,41.933 148,27l10,139s194.73,3.161 230,7l29,207l86,-4s111.79,-13.255 167,-7" class="cls-1" data-name="Фигура 11"/>
  <path id="svg_12" d="m2068,657s-19.12,-8.761 -34,-5s-202.33,21.169 -225,16l-47,-26l-39,123s-315.3,-91.669 -398,-92c0,0 -14.99,-20.86 -32.26,-57.3q-0.87,-1.823 -1.74,-3.7c-18,-38.725 -158,-303 -158,-303s-196.267,36.481 -232,60l-8,-1l-274,-255l111,-131" class="cls-1" data-name="Фигура 12"/>
  <path id="svg_13" d="m503,1035l39,-31l-9,-15l68,-33l-48,-71l102,-35l-31,-38l74,-53s2.609,-42.8 53,-73l5,5s119.52,-112.127 127,-115s-69,-114 -69,-114s138.973,-78.274 189,-92s141,-31 141,-31l-62,-219l-15,-45s34.32,-6.659 41,-19s19,-68 19,-68" class="cls-1" data-name="Фигура 13"/>
  <path id="svg_14" d="m857,-12s38.863,80.855 60,166s45,173 45,173s-3.617,24.535 47,10s111.97,-38.829 122,-27s109,207 109,207s34.27,-33.588 38,-49c0,0 62.51,-1.121 82,-3s74,-7 74,-7s4.55,9.113 5,17s-0.78,24.578 -5,25s0,92 0,92l58,6l-30,97s-111.25,-25.413 -140,-22l63,126s-74.3,59.838 -78,62s-75,52 -75,52l65,118" class="cls-1" data-name="Фигура 14"/>
  <path id="svg_15" d="m2004,-13s-10.76,179.234 -9,211s2.73,132.292 2,134s-142.38,-48.948 -375,-46c0,0 0.33,292.4 2,320s-2.62,134.3 7,157c0,0 9.13,4.933 4,14s-72,138 -72,138s114.29,32.323 158,32l-1,90" class="cls-1" data-name="Фигура 15"/>
  <path id="svg_16" d="m2053,445s-10.28,-5.555 -17,-6s-15.63,-4.735 -17,2s-4,30 -4,30s-1.2,5.558 -4,7s-6,7 -6,7l0,15l-208,17s-45.5,214.316 -74,244l-57,-14l-65,132s116.35,24.886 124,27s125,16 125,16s1.88,-108.586 2,-112s0,-3 0,-3s133.28,2.363 149,2s45,-0.765 56,2" class="cls-1" data-name="Фигура 16"/>
  <path id="svg_17" d="m2056,775s-92.89,14.445 -139,15s-150.12,-10.626 -194,-29s-165.93,-42.576 -232,-60s-166,-31 -166,-31l-82,-154s38.01,-43.951 39,-47s0,4 0,4s143.96,-9.446 153,-12l-13,-163s1.46,-6.908 -12,-5s-190,17 -190,17l-15,-24s79.42,-84.846 85,-89s45.81,-20.982 46,-23s53,-58 53,-58s-36.06,-8.881 -45,-10s-18.91,-6.784 -19,-11s-41,-6 -41,-6s-20.3,-25.106 1,-61l-94,-35" class="cls-1" data-name="Фигура 17"/>
  <path id="svg_18" d="m844,1027s109.252,-133.009 118,-144s80.94,-68.341 87,-76l-32,-180l-21,-102l-54,19s-54.7,24.193 -57,30s-127,118 -127,118l-113,-110l-180,-200l106,-99l11,9l73,-78l-54,-51s12.39,-27.017 29,-12l6,4l13,-13l-90,-81l74,-90" class="cls-1" data-name="Фигура 18"/>
  <path id="svg_19" d="m303,1027s42.386,-80 102,-159s191.331,-238.8 240,-282c0,0 6.742,-4.245 -2,-13s-95,-103 -95,-103l222,-214l-79,-75s47.32,-58.538 58,-59s26,2 26,2s26.762,-13.74 28,-18s-6,-25 -6,-25a9.514,9.514 0 0 1 -11,-6c-3.216,-7.907 -11,-28 -11,-28l91,-39l-6,-33" class="cls-1" data-name="Фигура 19"/>
  <path id="svg_20" d="m-8,817l143,86s95.9,-134.584 115,-179s22,-44 22,-44s-59.888,-87.041 -94,-115l-73,-67l135,-188l-51,-56l33,-35l-65,-71l46,-47l-131,-113" class="cls-1" data-name="Фигура 20"/>
  <path id="svg_21" d="m-9,668s97.5,-148.225 114,-171s124.194,-177.459 134,-187s38,-38 38,-38l111,-106l142,151l44,-35l83,85l81,89s-113.265,74.974 -122,89c0,0 174.9,176.615 185,187s157.714,147.187 159,151s103.94,105.8 107,143" class="cls-1" data-name="Фигура 21"/>
  <path id="svg_22" d="m1910,-12l-10,42l-112,-13s-8.73,44.506 -14,46c0,0 1.36,13.4 2,40s-6,123 -6,123l-6,59s-99.87,-8.614 -239,-1s-300.64,25.132 -318,24s-33,-9 -52,-7c0,0 -29.38,-111.121 -30,-114s-6.83,-10.97 -4,-26c0,0 -2.53,-9.917 -8,-11s-6,-13 -6,-13s5.12,-3.429 15,-2s13.81,-2.883 12,-9s-18,-48 -18,-48s0.65,-0.293 -10,3c0,0 -5.94,3.84 -8,-3c0,0 -14.23,1.817 -10,10c0,0 0.73,4.855 6,3s6.91,-4.281 10,7s3,16 3,16s-21.23,7.746 -23,9s-46,-133 -46,-133" class="cls-1" data-name="Фигура 22"/>
 </g>
</svg>