<svg width="800" height="600" xmlns="http://www.w3.org/2000/svg">
 <g>
  <title>Layer 1</title>
  <path fill="#fff" stroke="#000" opacity="NaN" d="m120,210" id="svg_1"/>
  <line fill="none" stroke="#000" opacity="NaN" x1="740" y1="283" x2="740" y2="283" id="svg_2" stroke-linejoin="undefined" stroke-linecap="undefined"/>
  <line fill="none" stroke="#000" opacity="NaN" x1="756" y1="395" x2="756" y2="395" id="svg_3" stroke-linejoin="undefined" stroke-linecap="undefined"/>
  <polyline fill="none" stroke="#000" opacity="NaN" points="741,367 " id="svg_4" stroke-linecap="round"/>
  <polyline fill="none" stroke="#000" opacity="NaN" points="786,389 " id="svg_5" stroke-linecap="round"/>
  <polyline fill="none" stroke="#000" opacity="NaN" points="746,313 " id="svg_6" stroke-linecap="round"/>
  <polyline fill="none" stroke="#000" opacity="NaN" points="742,305 " id="svg_7" stroke-linecap="round"/>
  <polyline fill="none" stroke="#000" opacity="NaN" points="743,329 " id="svg_8" stroke-linecap="round"/>
  <polyline fill="none" stroke="#000" opacity="NaN" points="737,375 " id="svg_9" stroke-linecap="round"/>
  <path fill="#fff" stroke="#000" opacity="NaN" d="m171,298" id="svg_10"/>
  <polyline fill="none" stroke="#000" opacity="NaN" points="815,395 " id="svg_11" stroke-linecap="round"/>
  <path id="svg_12" d="m247,107" opacity="NaN" stroke="#000" fill="#fff"/>
  <path d="m108,95c0,-1 0,-2 0,-3c0,-1 0,-4 0,-6c0,-4 0,-6 0,-10c0,-3 1.49755,-6.9258 2,-12c0.19707,-1.99026 0.14429,-6.93414 1,-9c1.21015,-2.92156 1.78985,-5.07844 3,-8c0.85571,-2.06586 3.91761,-6.38688 5,-9c0.38268,-0.92388 1.07612,-2.61732 2,-3c1.30656,-0.54119 1.29289,-2.29289 2,-3c0.70711,-0.70711 2.07612,-0.61732 3,-1c1.30656,-0.5412 2.07613,-0.61732 3,-1c1.30656,-0.5412 1.69344,-1.4588 3,-2c0.92387,-0.38268 3,0 4,0c2,0 3,0 6,0c3,0 7,0 9,0c4,0 6,0 10,0c4,0 7.0535,-0.45951 9,0c4.35251,1.02749 11.96384,3.11587 15,4c7.91736,2.30554 9.79025,2.99024 17,4c0.99034,0.1387 7.06456,1.19909 12,2c3.12144,0.50654 5.82375,2.48626 8,3c2.91975,0.68926 5.02582,0.67963 7,1c3.12144,0.50654 6,2 9,2c2,0 4.93097,1.23773 8,2c5.9034,1.46626 10,1 13,1c4,0 11,0 17,0c5,0 13.15543,0.94259 22,-1c3.08865,-0.67838 13.92484,-3.28472 21,-5c9.91095,-2.40277 14.12668,-2.54831 22,-5c8.15765,-2.54022 12.88495,-4.27431 15,-5c4.82303,-1.65482 7.88733,-1.37669 14,-3c4.92819,-1.30875 7.97418,-2.13911 13,-3c6.96957,-1.19383 9.1181,-0.3754 16,-2c3.0777,-0.72654 6.82376,-1.48626 9,-2c5.83951,-1.37852 8,0 10,0c5,0 8,-1 10,-1c4,0 5,0 7,0c2,0 5,0 6,0c1,0 2.00974,-0.19707 4,0c5.07422,0.50245 7.02521,0.88134 12,2c8.04532,1.80912 11.75711,4.98692 18,6c0.98709,0.16018 10.07843,2.78985 13,4c6.19757,2.56712 9.08743,3.79393 14,6c4.07965,1.83204 6.31,2.33749 9,4c1.203,0.7435 3,2 4,2c1,0 1.29291,0.29289 2,1c0.70709,0.70711 0.69342,2.45881 2,3c0.92389,0.38268 1.29291,0.29289 2,1c0.70709,0.70711 0.69342,2.45881 2,3c0.92389,0.38268 2.05353,1.54049 4,2c2.17627,0.51374 2.29291,2.29289 3,3c0.70709,0.70711 3,0 4,0c1,0 2,0 3,0c1,0 2.07611,0.38268 3,0c1.30658,-0.54119 1.64752,-1.97252 6,-3c2.91974,-0.68926 7.90283,-2.22421 10,-3c3.867,-1.4305 5.08026,-1.31074 8,-2c2.17627,-0.51374 5.02435,-1.50731 10,-2c5.07422,-0.50245 8.02997,-0.51127 12,-1c4.09222,-0.50377 6.92578,-1.49755 12,-2c2.98541,-0.29561 10,0 17,0c6,0 9,0 18,0c2,0 6,0 8,0c5,0 8,0 10,0c3,0 4.90778,0.49623 9,1c2.97754,0.36655 4.07611,-0.38268 5,0c1.30658,0.54119 2.07611,0.61732 3,1c2.6131,1.08239 3.05353,2.54049 5,3c4.35248,1.02748 6.94342,3.14773 12,5c2.96936,1.08769 9.979,4.06541 13,5c6.9549,2.1516 9,4 13,5c4,1 8.29291,3.29289 9,4c0.70709,0.70711 0,2 0,4c0,1 0.45953,3.0535 0,5c-0.51373,2.17625 -1,3 -1,4c0,1 -0.77026,2.02675 -1,3c-0.51373,2.17625 -0.54047,4.0535 -1,6c-0.51373,2.17625 -2.77026,7.02675 -3,8c-1.02747,4.3525 -4.44354,7.38062 -6,13c-0.26691,0.96371 -3,8 -4,10c-2,4 -3.30322,7.76935 -4,9c-2.03143,3.58792 -1.49622,6.90779 -2,11c-0.12219,0.99251 -1,3 -1,4c0,3 0,5 0,8c0,1 1,4 1,5c0,3 1,4 3,8c1,2 2.71021,6.04291 3,7c1.04486,3.45085 4.14429,4.93414 5,7c1.21014,2.92157 3,6 4,8c2,4 5.44354,4.38063 7,10c0.26691,0.96371 2.22052,3.83128 6,9c2.12817,2.91046 4,5 6,8c2,3 3.4588,3.69344 4,5c0.38269,0.92387 1.29291,2.29289 2,3c1.41418,1.41422 0.69257,3.186 2,5c0.8269,1.14726 2.10339,3.90633 3,5c2.28589,2.78833 2.77026,6.02675 3,7c0.51373,2.17625 1,3 1,4c0,1 0.4588,1.69344 1,3c0.38269,0.92387 0,2 0,4c0,1 0,3 0,4c0,1 -0.4588,2.69345 -1,4c-1.14807,2.77164 -0.08099,9.10699 -1,13c-0.51373,2.17624 -2,9 -2,12c0,2 -1.83502,9.00681 -2,11c-0.50171,6.06204 0.03143,7.41208 -2,11c-0.69678,1.23065 -1.98694,5.75711 -3,12c-0.32037,1.97418 -0.49872,8.94672 -1,16c-0.35443,4.98743 -1.48627,11.82376 -2,14c-0.91901,3.89301 0.48724,7.06079 -1,17c-0.75458,5.04288 -1,10 -1,14c0,7 0,10 0,14c0,4 0,6 0,8c0,2 0.49622,3.90778 1,8c0.24438,1.98502 1.19922,6.10886 2,9c1.55646,5.61938 4.74915,10.03198 5,11c2.58258,9.96646 8.19031,13.88153 10,17c1.12231,1.93399 3.67963,7.02582 4,9c0.50653,3.12143 2,6 2,8c0,2 0,6 0,8c0,4 -1,6 -1,10c0,2 -0.61066,7.15927 -2,10c-1.58411,3.23892 -2,4 -4,6c-2,2 -3,3 -4,4c-2,2 -3,2 -7,4c-2,1 -7.07178,2.69125 -12,4c-3.05634,0.81165 -8.96381,2.11588 -12,3c-7.91736,2.30554 -16,2 -20,2c-2,0 -7,0 -9,0c-5,0 -7,0 -12,0c-7,0 -11.02728,0.65985 -19,0c-6.06201,-0.50171 -8.04132,-0.84723 -12,-2c-3.03619,-0.88412 -7.06598,-1.87766 -9,-3c-3.11847,-1.80972 -4.17694,-3.19919 -11,-7c-2.76257,-1.53891 -7.39099,-5.7695 -11,-8c-2.69,-1.66251 -6.86328,-4.14682 -9,-6c-3.77728,-3.276 -8.93787,-6.04733 -12,-10c-3.92139,-5.06186 -7.97015,-8.02142 -13,-15c-7.95294,-11.03409 -10.59167,-13.58868 -16,-22c-6.77661,-10.53934 -7.55914,-16.22812 -16,-32c-3.80426,-7.10828 -8,-20 -12,-30c-4,-10 -8.79565,-24.09116 -12,-31c-2.82245,-6.08554 -3.8244,-11.0979 -5,-13c-2.62866,-4.25327 -2.633,-6.198 -6,-12c-1.80972,-3.11847 -3.08032,-6.3764 -7,-8c-0.92389,-0.38269 -4.02249,-0.63345 -7,-1c-4.09222,-0.50378 -18.00174,-1.11749 -22,-1c-17.02203,0.50021 -27.19873,3.23376 -44,8c-9.12671,2.58908 -18,7 -24,9c-9,3 -16.07971,5.84796 -20,8c-5.11145,2.80591 -7.42334,4.42825 -13,9c-3.28101,2.68979 -10,9 -17,16c-2,2 -3.93732,5.07016 -14,14c-7.95087,7.05576 -16.22272,13.724 -20,17c-2.13675,1.85318 -3,3 -8,8c-3,3 -4.79489,5.22021 -8,8c-3.77728,3.276 -7.72961,7.22885 -12,12c-2.8295,3.16132 -6.21167,4.71411 -9,7c-4.37469,3.5864 -6.74283,6.34457 -12,10c-4.78738,3.3288 -6.17697,3.34518 -11,5c-2.11505,0.72568 -6.21512,2.36078 -13,5c-2.08395,0.81064 -9.81557,2.99246 -18,4c-5.95505,0.73309 -16,0 -19,0c-7,0 -9,0 -14,0c-7,0 -14,0 -17,0c-3,0 -9,0 -13,0c-5,0 -11.21512,-0.36078 -18,-3c-2.08395,-0.81064 -7.22836,-2.85196 -10,-4c-3.91969,-1.6236 -3.297,-4.61383 -6,-7c-1.67633,-1.47983 -4.93919,-6.02475 -7,-11c-2.91443,-7.03607 -7,-17 -8,-20c-4,-12 -6.8484,-21.0451 -9,-28c-0.93459,-3.02103 -2.70438,-8.01459 -3,-11c-0.50245,-5.07422 -1,-11 -1,-13c0,-2 0,-5 0,-8c0,-3 0,-4 0,-8c0,-3 1.1034,-6.90634 2,-8c2.28588,-2.78833 4,-8 7,-10c6,-4 8.22885,-5.72961 13,-10c3.16132,-2.8295 7.97252,-6.64749 9,-11c0.22975,-0.97324 2,-4 2,-7c0,-1 0,-5 0,-8c0,-4 0,-6 0,-11c0,-2 -1.5797,-9.15686 -4,-15c-3.42282,-8.26343 -5.1967,-9.89351 -10,-19c-4.17284,-7.91122 -7.4242,-14.88147 -13,-23c-2.40192,-3.49725 -5.76312,-9.13716 -7,-11c-5.09976,-7.68065 -9.42824,-14.42336 -14,-20c-2.68979,-3.28101 -3.19028,-3.88152 -5,-7c-1.12234,-1.93399 -2,-4 -3,-5c-1,-1 -1.61732,-2.07613 -2,-3c-0.5412,-1.30656 -1.69344,-3.4588 -3,-4c-0.92388,-0.38269 -2.1731,-1.85274 -3,-3c-1.30745,-1.814 -1,-3 -3,-5c-1,-1 -2.14935,-2.47427 -3,-3c-1.90211,-1.17557 -1.34619,-2.70546 -3,-5c-1.30745,-1.814 -2.1034,-3.90633 -3,-5c-2.28588,-2.78833 -1.96855,-4.41208 -4,-8c-0.69678,-1.23065 -1.71412,-4.21167 -4,-7c-0.8966,-1.09367 -0.92807,-2.61104 -3,-5c-1.46508,-1.68925 -2.53237,-3.19892 -4,-6c-2.32053,-4.42889 -4,-5 -6,-9c-2,-4 -2.94854,-6.2987 -4,-8c-1.17557,-1.90211 -2.23463,-3.15224 -3,-5c-0.54119,-1.30656 -0.61732,-2.07612 -1,-3c-0.54119,-1.30656 -1,-2 -1,-3c0,-2 0.22273,-2.72399 4,-6c1.06837,-0.9266 5.15928,-2.61065 8,-4c3.23892,-1.58411 5.29289,-2.29289 6,-3c0.70711,-0.70711 2.07612,-0.61732 3,-1c1.30656,-0.5412 3,-1 6,-1c1,0 3,0 4,0c1,0 2,0 3,0c1,0 2,0 3,0c1,0 2,0 3,0c1,0 3,1 5,2c2,1 3.186,0.69255 5,2c1.14727,0.8269 3.186,1.69255 5,3c1.14727,0.8269 1.69344,1.4588 3,2c1.84776,0.76537 2.29289,0.29289 3,1c0.70711,0.70711 1,1 2,2c1,1 2.29289,1.29289 3,2c0.70711,0.70711 1.29289,0.29289 2,1c0.70711,0.70711 1,2 2,3c1,1 1.29289,2.29289 2,3c0.70711,0.70711 2,0 2,-1c0,-1 0,-2 0,-3c0,-1 0,-2 0,-3c0,-1 0,-2 0,-4l0,-1l0,-1" id="svg_18" stroke="#000" fill="none"/>
 </g>

</svg>